<mxfile host="app.diagrams.net" modified="2024-06-23T03:40:12.357Z" agent="Mozilla/5.0 (Macintosh; Intel Mac OS X 10_15_7) AppleWebKit/537.36 (KHTML, like Gecko) Chrome/125.0.0.0 Safari/537.36" etag="VJip5tYl3uXwfrwPU6iZ" version="24.6.2" type="github">
  <diagram name="第 1 页" id="wl0mz-ZPRaKd1AVeYUyG">
    <mxGraphModel dx="932" dy="564" grid="1" gridSize="10" guides="1" tooltips="1" connect="1" arrows="1" fold="1" page="1" pageScale="1" pageWidth="827" pageHeight="1169" math="0" shadow="0">
      <root>
        <mxCell id="0" />
        <mxCell id="1" parent="0" />
        <mxCell id="dq44ubY4tsa2fu2jASXt-3" value="" style="edgeStyle=orthogonalEdgeStyle;rounded=0;orthogonalLoop=1;jettySize=auto;html=1;exitX=1;exitY=0.5;exitDx=0;exitDy=0;" parent="1" source="rpYTVIMxA2uQG3Uo09tJ-8" target="dq44ubY4tsa2fu2jASXt-2" edge="1">
          <mxGeometry relative="1" as="geometry">
            <mxPoint x="210" y="200" as="sourcePoint" />
          </mxGeometry>
        </mxCell>
        <mxCell id="dq44ubY4tsa2fu2jASXt-6" value="" style="edgeStyle=orthogonalEdgeStyle;rounded=0;orthogonalLoop=1;jettySize=auto;html=1;" parent="1" source="dq44ubY4tsa2fu2jASXt-2" target="dq44ubY4tsa2fu2jASXt-5" edge="1">
          <mxGeometry relative="1" as="geometry" />
        </mxCell>
        <mxCell id="dq44ubY4tsa2fu2jASXt-2" value="分析和确定腾挪目标业务" style="whiteSpace=wrap;html=1;" parent="1" vertex="1">
          <mxGeometry x="290" y="171.25" width="120" height="60" as="geometry" />
        </mxCell>
        <mxCell id="dq44ubY4tsa2fu2jASXt-8" value="" style="edgeStyle=orthogonalEdgeStyle;rounded=0;orthogonalLoop=1;jettySize=auto;html=1;" parent="1" source="dq44ubY4tsa2fu2jASXt-5" target="dq44ubY4tsa2fu2jASXt-7" edge="1">
          <mxGeometry relative="1" as="geometry" />
        </mxCell>
        <mxCell id="dq44ubY4tsa2fu2jASXt-5" value="在jumpserver上执行业务切换命令并记录执行结果" style="whiteSpace=wrap;html=1;" parent="1" vertex="1">
          <mxGeometry x="450" y="171.25" width="120" height="60" as="geometry" />
        </mxCell>
        <mxCell id="dq44ubY4tsa2fu2jASXt-10" value="" style="edgeStyle=orthogonalEdgeStyle;rounded=0;orthogonalLoop=1;jettySize=auto;html=1;" parent="1" source="dq44ubY4tsa2fu2jASXt-7" target="dq44ubY4tsa2fu2jASXt-9" edge="1">
          <mxGeometry relative="1" as="geometry" />
        </mxCell>
        <mxCell id="dq44ubY4tsa2fu2jASXt-7" value="登记腾挪记录" style="whiteSpace=wrap;html=1;" parent="1" vertex="1">
          <mxGeometry x="620" y="171.25" width="110" height="60" as="geometry" />
        </mxCell>
        <mxCell id="dq44ubY4tsa2fu2jASXt-9" value="结束" style="ellipse;whiteSpace=wrap;html=1;" parent="1" vertex="1">
          <mxGeometry x="760" y="171.25" width="60" height="58.75" as="geometry" />
        </mxCell>
        <mxCell id="dq44ubY4tsa2fu2jASXt-12" value="3～20分钟" style="text;strokeColor=none;align=center;fillColor=none;html=1;verticalAlign=middle;whiteSpace=wrap;rounded=0;" parent="1" vertex="1">
          <mxGeometry x="150" y="250" width="60" height="30" as="geometry" />
        </mxCell>
        <mxCell id="dq44ubY4tsa2fu2jASXt-13" value="2～4小时" style="text;strokeColor=none;align=center;fillColor=none;html=1;verticalAlign=middle;whiteSpace=wrap;rounded=0;" parent="1" vertex="1">
          <mxGeometry x="320" y="250" width="60" height="30" as="geometry" />
        </mxCell>
        <mxCell id="dq44ubY4tsa2fu2jASXt-14" value="0.5～1小时" style="text;strokeColor=none;align=center;fillColor=none;html=1;verticalAlign=middle;whiteSpace=wrap;rounded=0;" parent="1" vertex="1">
          <mxGeometry x="470" y="250" width="80" height="30" as="geometry" />
        </mxCell>
        <mxCell id="dq44ubY4tsa2fu2jASXt-16" value="10分钟" style="text;strokeColor=none;align=center;fillColor=none;html=1;verticalAlign=middle;whiteSpace=wrap;rounded=0;" parent="1" vertex="1">
          <mxGeometry x="635" y="250" width="80" height="30" as="geometry" />
        </mxCell>
        <mxCell id="rpYTVIMxA2uQG3Uo09tJ-9" value="" style="edgeStyle=orthogonalEdgeStyle;rounded=0;orthogonalLoop=1;jettySize=auto;html=1;exitX=1;exitY=0.5;exitDx=0;exitDy=0;entryX=0;entryY=0.5;entryDx=0;entryDy=0;" edge="1" parent="1" source="dq44ubY4tsa2fu2jASXt-18" target="rpYTVIMxA2uQG3Uo09tJ-8">
          <mxGeometry relative="1" as="geometry" />
        </mxCell>
        <mxCell id="dq44ubY4tsa2fu2jASXt-18" value="开始&lt;div&gt;&lt;/div&gt;" style="ellipse;whiteSpace=wrap;html=1;aspect=fixed;" parent="1" vertex="1">
          <mxGeometry x="30" y="170" width="60" height="60" as="geometry" />
        </mxCell>
        <mxCell id="rpYTVIMxA2uQG3Uo09tJ-8" value="&lt;div&gt;根据腾挪筛选条件准备数据&lt;/div&gt;【腾挪宽表】" style="whiteSpace=wrap;html=1;" vertex="1" parent="1">
          <mxGeometry x="120" y="170" width="120" height="61.25" as="geometry" />
        </mxCell>
      </root>
    </mxGraphModel>
  </diagram>
</mxfile>
